<svg width="400" height="400" viewBox="0 0 400 400" fill="none" xmlns="http://www.w3.org/2000/svg">
<path d="M400 200C400 310.457 310.457 400 200 400C89.543 400 0 310.457 0 200C0 89.543 89.543 0 200 0C310.457 0 400 89.543 400 200Z" fill="white"/>
<path d="M196.596 156.625C202.88 146.385 211.025 138.356 221.033 132.538C231.273 126.72 242.909 123.811 255.942 123.811V175.127H243.025C227.665 175.127 216.029 178.735 208.116 185.949C200.436 193.164 196.596 205.731 196.596 223.651V320H147.724V126.604H196.596V156.625Z" fill="#1C0F51"/>
<path d="M254.545 214.545C254.545 224.587 246.405 232.727 236.364 232.727C226.322 232.727 218.182 224.587 218.182 214.545C218.182 204.504 226.322 196.364 236.364 196.364C246.405 196.364 254.545 204.504 254.545 214.545Z" fill="#FEC836"/>
<path d="M254.545 330.909C254.545 340.951 246.405 349.091 236.364 349.091C226.322 349.091 218.182 340.951 218.182 330.909C218.182 320.868 226.322 312.727 236.364 312.727C246.405 312.727 254.545 320.868 254.545 330.909Z" fill="#B193FC"/>
<path d="M254.545 272.727C254.545 282.769 246.405 290.909 236.364 290.909C226.322 290.909 218.182 282.769 218.182 272.727C218.182 262.686 226.322 254.545 236.364 254.545C246.405 254.545 254.545 262.686 254.545 272.727Z" fill="#00E9B0"/>
</svg>
