<svg width="600" height="122" viewBox="0 0 600 122" fill="none" xmlns="http://www.w3.org/2000/svg">
<path d="M20.3958 50.1882C23.0181 45.9148 26.4174 42.564 30.5937 40.136C34.8671 37.7079 39.7232 36.4939 45.1621 36.4939V57.9094H39.7718C33.3617 57.9094 28.5055 59.4148 25.2034 62.4256C21.9983 65.4364 20.3958 70.6811 20.3958 78.1595V118.368H0V37.6593H20.3958V50.1882Z" fill="#0F172A"/>
<path d="M133.927 76.2656C133.927 79.1793 133.733 81.8016 133.344 84.1326H74.3421C74.8278 89.9599 76.8673 94.5247 80.4609 97.8269C84.0544 101.129 88.4735 102.78 93.7181 102.78C101.294 102.78 106.684 99.5265 109.889 93.0193H131.887C129.556 100.789 125.089 107.199 118.484 112.25C111.88 117.203 103.77 119.679 94.1552 119.679C86.3854 119.679 79.3925 117.98 73.1767 114.581C67.0579 111.084 62.2504 106.179 58.7539 99.8665C55.3546 93.5535 53.655 86.2693 53.655 78.0138C53.655 69.6613 55.3546 62.3285 58.7539 56.0155C62.1532 49.7026 66.9123 44.8464 73.031 41.4471C79.1497 38.0478 86.1911 36.3482 94.1552 36.3482C101.828 36.3482 108.675 37.9993 114.697 41.3014C120.815 44.6036 125.526 49.3141 128.828 55.4328C132.227 61.4544 133.927 68.3987 133.927 76.2656ZM112.803 70.4383C112.706 65.1936 110.812 61.0174 107.121 57.9094C103.43 54.7044 98.9142 53.1019 93.5724 53.1019C88.5221 53.1019 84.2487 54.6558 80.7522 57.7637C77.3529 60.7746 75.2648 64.9994 74.4878 70.4383H112.803Z" fill="#0F172A"/>
<path d="M172.561 54.413V93.4564C172.561 96.1758 173.192 98.1668 174.454 99.4294C175.814 100.595 178.048 101.178 181.156 101.178H190.625V118.368H177.805C160.614 118.368 152.019 110.016 152.019 93.3107V54.413H142.404V37.6593H152.019V17.7006H172.561V37.6593H190.625V54.413H172.561Z" fill="#0F172A"/>
<path d="M215.639 28.0442C212.045 28.0442 209.034 26.9273 206.606 24.6935C204.275 22.3625 203.11 19.4974 203.11 16.0981C203.11 12.6988 204.275 9.88223 206.606 7.64841C209.034 5.31746 212.045 4.15199 215.639 4.15199C219.232 4.15199 222.194 5.31746 224.525 7.64841C226.953 9.88223 228.167 12.6988 228.167 16.0981C228.167 19.4974 226.953 22.3625 224.525 24.6935C222.194 26.9273 219.232 28.0442 215.639 28.0442ZM225.691 37.6593V118.368H205.295V37.6593H225.691Z" fill="#0F172A"/>
<path d="M266.238 49.4598C268.86 45.5748 272.454 42.4184 277.018 39.9903C281.68 37.5622 286.973 36.3482 292.898 36.3482C299.794 36.3482 306.009 38.0478 311.545 41.4471C317.179 44.8464 321.598 49.7026 324.803 56.0155C328.105 62.2314 329.756 69.467 329.756 77.7225C329.756 85.9779 328.105 93.3107 324.803 99.7208C321.598 106.034 317.179 110.938 311.545 114.435C306.009 117.931 299.794 119.679 292.898 119.679C286.876 119.679 281.583 118.514 277.018 116.183C272.551 113.755 268.957 110.647 266.238 106.859V118.368H245.842V10.5621H266.238V49.4598ZM308.923 77.7225C308.923 72.8663 307.903 68.6901 305.864 65.1936C303.921 61.6001 301.299 58.8807 297.997 57.0353C294.792 55.19 291.295 54.2673 287.508 54.2673C283.817 54.2673 280.32 55.2386 277.018 57.181C273.813 59.0263 271.191 61.7458 269.151 65.3393C267.209 68.9329 266.238 73.1577 266.238 78.0138C266.238 82.87 267.209 87.0948 269.151 90.6884C271.191 94.2819 273.813 97.0499 277.018 98.9924C280.32 100.838 283.817 101.76 287.508 101.76C291.295 101.76 294.792 100.789 297.997 98.8467C301.299 96.9042 303.921 94.1362 305.864 90.5427C307.903 86.9491 308.923 82.6757 308.923 77.7225Z" fill="#0F172A"/>
<path d="M380.415 119.679C372.646 119.679 365.653 117.98 359.437 114.581C353.221 111.084 348.316 106.179 344.723 99.8665C341.226 93.5535 339.478 86.2693 339.478 78.0138C339.478 69.7584 341.275 62.4742 344.868 56.1612C348.559 49.8482 353.561 44.9921 359.874 41.5928C366.187 38.0964 373.228 36.3482 380.998 36.3482C388.768 36.3482 395.809 38.0964 402.122 41.5928C408.435 44.9921 413.389 49.8482 416.982 56.1612C420.673 62.4742 422.518 69.7584 422.518 78.0138C422.518 86.2693 420.624 93.5535 416.836 99.8665C413.146 106.179 408.095 111.084 401.685 114.581C395.372 117.98 388.282 119.679 380.415 119.679ZM380.415 101.906C384.106 101.906 387.554 101.032 390.759 99.2837C394.061 97.4384 396.683 94.719 398.626 91.1254C400.568 87.5319 401.54 83.1613 401.54 78.0138C401.54 70.3411 399.5 64.4652 395.421 60.3861C391.439 56.2098 386.534 54.1216 380.707 54.1216C374.879 54.1216 369.975 56.2098 365.993 60.3861C362.108 64.4652 360.165 70.3411 360.165 78.0138C360.165 85.6865 362.059 91.611 365.847 95.7873C369.732 99.8665 374.588 101.906 380.415 101.906Z" fill="#0F172A"/>
<path d="M446.512 119.388C442.821 119.388 439.761 118.271 437.333 116.037C435.002 113.706 433.837 110.841 433.837 107.442C433.837 104.043 435.002 101.226 437.333 98.9924C439.761 96.6614 442.821 95.4959 446.512 95.4959C450.105 95.4959 453.067 96.6614 455.398 98.9924C457.729 101.226 458.895 104.043 458.895 107.442C458.895 110.841 457.729 113.706 455.398 116.037C453.067 118.271 450.105 119.388 446.512 119.388Z" fill="#0F172A"/>
<path d="M470.078 77.7225C470.078 69.5642 471.681 62.3285 474.886 56.0155C478.188 49.7026 482.607 44.8464 488.143 41.4471C493.776 38.0478 500.041 36.3482 506.936 36.3482C512.958 36.3482 518.203 37.5622 522.67 39.9903C527.235 42.4184 530.877 45.4777 533.596 49.1684V37.6593H554.138V118.368H533.596V106.568C530.974 110.356 527.332 113.512 522.67 116.037C518.105 118.465 512.812 119.679 506.791 119.679C499.992 119.679 493.776 117.931 488.143 114.435C482.607 110.938 478.188 106.034 474.886 99.7208C471.681 93.3107 470.078 85.9779 470.078 77.7225ZM533.596 78.0138C533.596 73.0606 532.625 68.8357 530.683 65.3393C528.74 61.7458 526.118 59.0263 522.816 57.181C519.514 55.2386 515.969 54.2673 512.181 54.2673C508.393 54.2673 504.897 55.19 501.692 57.0353C498.487 58.8807 495.864 61.6001 493.825 65.1936C491.882 68.6901 490.911 72.8663 490.911 77.7225C490.911 82.5786 491.882 86.852 493.825 90.5427C495.864 94.1362 498.487 96.9042 501.692 98.8467C504.994 100.789 508.49 101.76 512.181 101.76C515.969 101.76 519.514 100.838 522.816 98.9924C526.118 97.0499 528.74 94.3305 530.683 90.834C532.625 87.2405 533.596 82.9671 533.596 78.0138Z" fill="#0F172A"/>
<path d="M584.402 28.0442C580.808 28.0442 577.797 26.9273 575.369 24.6935C573.038 22.3625 571.873 19.4974 571.873 16.0981C571.873 12.6988 573.038 9.88223 575.369 7.64841C577.797 5.31746 580.808 4.15199 584.402 4.15199C587.995 4.15199 590.957 5.31746 593.288 7.64841C595.716 9.88223 596.93 12.6988 596.93 16.0981C596.93 19.4974 595.716 22.3625 593.288 24.6935C590.957 26.9273 587.995 28.0442 584.402 28.0442ZM594.454 37.6593V118.368H574.058V37.6593H594.454Z" fill="#0F172A"/>
<path d="M229.72 15.1754C229.72 23.5566 222.925 30.3509 214.544 30.3509C206.163 30.3509 199.369 23.5566 199.369 15.1754C199.369 6.79427 206.163 0 214.544 0C222.925 0 229.72 6.79427 229.72 15.1754Z" fill="#FEC836"/>
<path d="M463.421 106.228C463.421 114.609 456.627 121.403 448.246 121.403C439.865 121.403 433.07 114.609 433.07 106.228C433.07 97.8468 439.865 91.0526 448.246 91.0526C456.627 91.0526 463.421 97.8468 463.421 106.228Z" fill="#00E9B0"/>
<path d="M600 15.1754C600 23.5566 593.206 30.3509 584.825 30.3509C576.443 30.3509 569.649 23.5566 569.649 15.1754C569.649 6.79427 576.443 0 584.825 0C593.206 0 600 6.79427 600 15.1754Z" fill="#B193FC"/>
</svg>
