<?xml version="1.0" standalone="no"?>
<svg xmlns:xlink="http://www.w3.org/1999/xlink" id="wave" style="transform:rotate(0deg); transition: 0.3s" viewBox="0 0 1440 450" version="1.1" xmlns="http://www.w3.org/2000/svg"><defs><linearGradient id="sw-gradient-0" x1="0" x2="0" y1="1" y2="0"><stop stop-color="rgba(253.043, 253.043, 253.043, 1)" offset="0%"/><stop stop-color="rgba(255, 255, 255, 1)" offset="100%"/></linearGradient></defs><path style="transform:translate(0, 0px); opacity:1" fill="url(#sw-gradient-0)" d="M0,270L34.3,240C68.6,210,137,150,206,172.5C274.3,195,343,300,411,315C480,330,549,255,617,187.5C685.7,120,754,60,823,90C891.4,120,960,240,1029,270C1097.1,300,1166,240,1234,180C1302.9,120,1371,60,1440,97.5C1508.6,135,1577,270,1646,322.5C1714.3,375,1783,345,1851,307.5C1920,270,1989,225,2057,240C2125.7,255,2194,330,2263,300C2331.4,270,2400,135,2469,127.5C2537.1,120,2606,240,2674,292.5C2742.9,345,2811,330,2880,292.5C2948.6,255,3017,195,3086,172.5C3154.3,150,3223,165,3291,142.5C3360,120,3429,60,3497,75C3565.7,90,3634,180,3703,187.5C3771.4,195,3840,120,3909,90C3977.1,60,4046,75,4114,112.5C4182.9,150,4251,210,4320,247.5C4388.6,285,4457,300,4526,315C4594.3,330,4663,345,4731,352.5C4800,360,4869,360,4903,360L4937.1,360L4937.1,450L4902.9,450C4868.6,450,4800,450,4731,450C4662.9,450,4594,450,4526,450C4457.1,450,4389,450,4320,450C4251.4,450,4183,450,4114,450C4045.7,450,3977,450,3909,450C3840,450,3771,450,3703,450C3634.3,450,3566,450,3497,450C3428.6,450,3360,450,3291,450C3222.9,450,3154,450,3086,450C3017.1,450,2949,450,2880,450C2811.4,450,2743,450,2674,450C2605.7,450,2537,450,2469,450C2400,450,2331,450,2263,450C2194.3,450,2126,450,2057,450C1988.6,450,1920,450,1851,450C1782.9,450,1714,450,1646,450C1577.1,450,1509,450,1440,450C1371.4,450,1303,450,1234,450C1165.7,450,1097,450,1029,450C960,450,891,450,823,450C754.3,450,686,450,617,450C548.6,450,480,450,411,450C342.9,450,274,450,206,450C137.1,450,69,450,34,450L0,450Z"/></svg>